<svg width="120" height="38" viewBox="0 0 120 38" fill="none" xmlns="http://www.w3.org/2000/svg">
<path d="M68.5497 7.52936C68.9776 7.79636 69.3778 8.14268 69.8497 8.05603L69.9084 7.9467C69.3481 6.18375 65.788 7.12938 64.5432 7.56905C61.0417 8.80554 58.054 11.0254 54.852 12.8397C50.8819 15.0369 44.1753 17.6147 39.5871 17.0397C38.5929 16.9062 37.6271 16.6113 36.7279 16.1667C35.2037 15.4267 34.0805 14.2968 33.5232 12.6776C33.2317 11.8309 33.1025 10.4023 33.4281 9.57075C33.749 9.34568 35.7382 10.2252 36.271 10.4028C42.726 12.5539 49.5302 10.1394 55.6438 7.98145C60.7607 6.05698 66.1031 2.76207 71.7523 3.43094C72.1604 3.47105 73.2509 3.87794 73.4135 4.26103C73.77 5.10082 73.0897 7.01628 72.84 7.87993C71.8639 11.2595 71.0832 14.631 70.4797 18.0959C70.2795 19.2483 69.9495 20.2163 69.8442 21.4304C70.673 19.6764 71.5158 18.0045 72.5114 16.3365C73.1065 15.3387 73.5656 14.2067 74.737 13.7831C75.4493 13.5238 76.2363 13.5681 76.9151 13.9055C76.9974 13.9461 77.0783 13.9882 77.1593 14.032C77.2507 14.4485 77.3477 14.9146 77.2235 15.3356C76.7881 16.804 74.1872 27.435 74.7997 28.0015C75.6732 27.8578 78.8121 23.1146 79.1337 22.0616C79.7044 20.1933 79.9193 17.9014 80.0825 15.9325C80.1251 15.5007 80.1132 14.7894 80.5325 14.7512C81.9474 14.6223 83.6428 14.8752 85.0353 14.6697L84.4849 19.9161C84.323 21.3936 83.5179 26.9927 83.903 28.125C84.9453 29.1701 87.4067 26.8852 88.1093 26.1787C87.7374 26.3449 87.3523 26.5734 86.9693 26.5775C86.8158 26.5057 86.7272 26.4799 86.6777 26.3053C86.2646 24.8504 88.02 16.3993 88.7756 15.1411C88.8879 14.9539 88.9946 14.8813 89.2067 14.8331C89.9616 14.6617 92.3986 14.6358 93.1116 14.9278C93.3111 15.1231 93.3628 15.3372 93.3516 15.621C93.279 16.9364 92.6414 18.2331 92.2332 19.4796C91.477 21.7904 90.5456 24.1223 90.3816 26.5692C90.3125 27.5927 90.3649 28.5289 91.6946 28.3615C93.8804 28.0866 95.8744 27.0938 97.2649 25.363C97.7428 24.789 98.2549 23.8932 98.6602 23.4524C99.0167 23.5192 99.6056 23.5854 99.8721 23.8013C99.9572 23.9945 99.9683 24.2254 99.8644 24.4299C97.9695 28.1417 93.0181 31.2785 88.8077 29.9787C88.4602 29.872 87.9886 29.5999 87.8149 29.3034C87.803 29.0696 87.7751 29.1715 87.8825 28.9817C88.1107 28.7068 88.3995 28.1229 88.5663 27.7985C88.2397 28.0754 88.1079 28.1913 87.8281 28.515C86.1663 29.9948 84.5784 30.7106 82.336 30.8424C78.1821 31.0873 78.9139 26.9278 79.6297 24.3121C78.8825 25.4108 78.2065 26.5789 77.5381 27.7273C76.9744 28.6957 76.4414 29.8057 75.6523 30.6094C75.2204 31.0496 74.6595 31.3992 74.0463 31.5066C73.3116 31.6364 72.3739 31.3266 71.7739 30.892C71.1209 30.4189 70.8146 29.6836 70.7023 28.9099C70.3591 26.5503 71.1865 23.3724 71.723 21.0584L71.6637 21.1415C70.7114 22.4881 69.2914 26.6752 68.7024 28.342C68.4515 29.0508 68.244 29.8964 67.9175 30.5913C67.7631 30.9199 67.7873 30.9282 67.5225 30.9987C66.9929 30.832 66.663 30.6059 66.4108 30.0959C65.6198 28.4975 66.5562 21.9382 66.762 20.025C66.8721 19.0011 66.9146 17.9699 67.0228 16.9466C67.12 16.0267 67.2905 15.112 67.4126 14.1949C67.7085 11.9715 67.9941 9.70673 68.5497 7.52936Z" fill="#FEFEFE"/>
<path d="M23.903 2.49946C25.0899 2.32149 27.5415 2.71923 28.6781 3.17502C29.682 3.57751 30.6923 4.34348 31.0613 5.40653C32.2887 8.94214 30.2294 12.5015 26.8237 13.776C26.5147 13.8917 25.7504 14.1687 25.4646 14.0426C25.3844 13.785 26.7071 9.39011 26.2677 8.57879C26.137 8.3376 25.9037 7.00644 26.1689 6.82191C26.5393 6.85846 26.643 7.12944 27.0185 7.21518C27.0166 6.58693 25.8341 6.09597 25.2689 6.07672C21.2079 5.93823 21.3031 8.85423 22.2581 11.8189C23.1673 14.6414 24.2711 17.244 25.7489 19.8315C26.5323 21.21 27.4155 22.663 28.0121 24.1361C28.2994 24.865 28.2615 25.7 28.2498 26.4738C29.0446 25.4737 29.8836 23.9189 30.773 22.7838C32.2667 20.8194 34.1324 18.657 36.7154 18.2875C38.0993 18.0896 38.2953 18.5773 38.3967 19.8199L38.4772 19.8332C39.2912 19.3563 39.906 17.7893 41.1148 17.7408C41.3391 17.7318 41.5625 17.7741 41.7679 17.8646C42.2195 18.0589 42.7845 18.6434 43.2833 18.8874C43.694 19.1199 45.0251 19.4082 45.2807 19.7697C45.8469 20.5706 45.1313 22.6315 43.9013 22.4324C42.5541 22.2143 41.8679 21.4231 41.0524 20.5325C38.3822 21.6787 35.2582 28.6233 36.2767 31.5822C36.3391 31.7636 36.8621 31.8222 37.053 32.1549C36.7191 33.3905 34.5367 33.2831 33.5729 33.1045C33.3503 33.0166 32.8815 32.8191 32.7782 32.5645C31.8088 30.1805 32.9914 26.7375 33.8289 24.4221C33.8917 24.2486 34.5582 24.2877 34.7474 24.14L34.7321 23.8712C34.6486 23.7441 34.5916 23.621 34.4427 23.5849C32.256 23.0546 30.0649 26.0541 29.2601 27.6989C28.8466 28.5445 28.7107 29.125 28.4384 29.7696C25.3407 37.0973 14.3184 35.8652 11.7689 28.758C10.5166 25.2293 12.627 20.6091 16.1347 19.3234C16.4537 19.2065 16.8601 19.0728 17.1736 19.2197C17.3447 19.7643 17.2368 22.2544 17.3001 23.0131C17.5526 26.0424 17.8997 31.1196 22.1898 30.5405C22.4695 30.5029 22.9843 30.3808 23.1413 30.1624L23.1791 30.168C22.9734 30.1659 22.7793 30.1826 22.5887 30.1226C22.4709 29.5415 22.6137 28.8019 22.5796 28.2005C22.4058 25.57 20.7205 23.0437 19.4854 20.775C16.8356 15.9079 13.5577 10.6957 17.5551 5.42788C19.0365 3.47572 21.5435 2.77065 23.903 2.49946Z" fill="#FEFEFE"/>
<path d="M62.2467 15.0574C65.9447 14.7896 67.8218 17.8549 64.8315 20.5256C64.5714 20.7577 63.655 21.1501 63.3137 21.0979C63.1185 20.9335 63.2152 20.8265 63.307 20.482C63.6193 19.3096 63.6642 18.2283 63.3786 17.0473C62.3481 17.0224 61.4116 16.8778 61.2278 18.1632C61.0398 19.4776 61.5888 20.5263 62.076 21.699C62.7772 23.4273 63.9978 24.9425 64.6234 26.6981C65.2126 28.3509 64.7521 30.0783 63.3061 31.099C60.3241 33.2039 54.8231 30.7802 55.5064 26.8209C55.694 25.699 56.3269 24.7004 57.2615 24.052C57.7968 23.68 58.7386 23.1263 58.6734 24.2586C58.5622 26.1919 58.7199 27.8116 59.7154 29.4804C60.5911 29.7211 61.4548 29.92 62.3143 29.4511L62.3406 29.3472C62.1434 29.2781 61.9183 29.3723 61.7056 29.4309L61.6818 29.1225C61.4315 25.7298 58.3399 23.0853 58.1185 20.2986C57.3288 21.8693 56.5961 23.5914 55.8182 25.2021C54.9165 27.0727 53.0188 29.9981 51.5466 31.4458C50.7581 32.2216 49.7119 32.8669 48.5711 32.8516C47.5746 32.8376 46.5839 32.3479 45.9004 31.6341C44.8611 30.55 44.7253 28.8888 44.7659 27.4579C44.7961 26.3955 44.9303 25.237 45.1091 24.1888C45.3837 22.5779 45.8522 21.0037 46.2732 19.429C46.4434 18.7925 46.535 18.1256 46.7803 17.5116C46.8944 17.2257 47.0514 16.9497 47.2838 16.7432C47.792 16.2915 50.5162 15.8015 51.2 15.8754C51.4813 15.9057 51.7304 16.0207 51.9089 16.2439C52.1606 16.5586 52.0446 16.9515 51.9715 17.3162C51.7659 18.3434 51.3785 19.3059 51.0433 20.2939C50.2676 22.5808 49.0368 25.986 48.7775 28.3425C48.7197 28.8693 48.556 30.3197 48.9699 30.7279C49.0919 30.8486 49.2576 30.8772 49.4212 30.8604C52.5909 30.5409 56.3447 19.5726 58.3504 16.9937C59.3249 15.7406 60.7116 15.2517 62.2467 15.0574Z" fill="#FEFEFE"/>
<path d="M85.4934 2.64538C85.9455 2.64238 87.9506 2.54094 88.1655 2.82028C88.155 3.14624 87.8313 3.73466 87.6722 4.04443C86.8336 5.67266 86.7067 7.67659 86.0543 9.30943C87.4692 9.06775 89.2671 8.96701 90.7022 8.88112C93.0373 8.74131 97.4139 8.14347 98.4646 10.9154C98.7694 11.7206 98.6383 14.0948 98.2448 14.8882C98.196 14.9273 98.1478 14.9663 98.099 15.0054C97.5178 14.7264 96.5425 13.8773 95.9446 13.7664C94.0253 13.4104 91.9525 13.6321 90.052 13.7242C88.8408 13.8027 87.5753 14.0404 86.3704 14.0953C84.142 14.1969 81.3094 14.385 79.1285 14.0541C77.2839 13.7741 75.3904 12.1499 75.1225 10.2848C75.0632 9.87328 74.9822 7.92845 75.2062 7.61428C75.3618 7.63821 75.4992 8.18017 75.7036 8.39108C76.9741 9.70389 79.8018 9.33614 81.3046 9.52507C81.3234 8.35103 82.1711 4.27912 82.9908 3.26861C83.5169 2.62019 84.7043 2.66457 85.4934 2.64538Z" fill="#FEFEFE"/>
<path d="M99.2947 2.78027C99.5926 2.90551 99.5026 3.53299 99.6714 3.92425C100.146 5.02281 102.14 5.07904 101.724 6.58351C101.551 7.19216 100.728 8.18683 101.651 8.58534C103.167 9.24011 104.849 9.50146 106.276 10.3795C108.413 11.694 109.523 13.5182 109.524 15.9935C109.525 19.6934 105.473 23.8972 101.734 23.6259C99.5905 23.4704 96.5612 22.8457 95.0396 21.2017C92.2405 17.8409 96.8542 15.1771 99.5779 18.5786C100.055 19.1292 100.675 21.186 100.328 21.8009C100.237 21.8556 100.163 21.9045 100.05 21.9186C98.2684 22.0596 99.5493 19.4086 98.133 18.5515C96.4084 17.5075 95.1317 17.9353 95.4847 20.0829C97.0342 22.0059 100.287 22.4815 102.551 21.8366C104.407 21.308 105.31 20.0132 106.148 18.4069C105.315 19.1091 104.248 20.0329 103.345 20.604C103.52 20.1949 103.77 19.8203 103.968 19.4218C104.478 18.3976 104.57 17.1473 104.533 16.0221C104.34 10.1919 100.562 11.0767 99.6637 8.37611C99.8765 7.36783 100.307 7.13648 100.58 6.25943C100.775 5.63348 99.7886 5.13981 99.467 4.5876C99.1384 4.02129 99.151 3.42437 99.2947 2.78027Z" fill="#FEFEFE"/>
<path d="M52.8782 2.77893C53.5377 2.70323 54.7653 2.65984 55.106 3.34858C55.063 4.07158 53.3977 6.56758 53.1158 7.4666C52.8384 8.3509 51.233 8.56991 50.3902 8.80063C50.2171 8.84765 50.0429 8.89097 49.868 8.9306C47.8781 9.38695 48.4416 7.67158 48.5419 6.3783C48.761 3.5539 50.3796 3.00016 52.8782 2.77893Z" fill="#FEFEFE"/>
<path d="M95.3494 1.73332C95.9243 1.68127 96.7524 1.68497 97.104 2.21087C97.2554 3.14722 95.7247 5.47376 95.3236 6.39895C94.8659 7.45418 93.3436 7.48313 92.3173 7.69578C91.7096 7.79708 90.638 8.14104 90.6359 7.19513C90.6226 5.81562 90.8131 4.1045 91.7236 2.99827C92.4889 2.06869 94.2164 1.84648 95.3494 1.73332Z" fill="#FEFEFE"/>
<path d="M88.5658 27.7979C88.399 28.1223 88.1102 28.7062 87.8821 28.9811L87.9281 28.6232L87.8276 28.5144C88.1074 28.1906 88.2393 28.0748 88.5658 27.7979Z" fill="#C6C4D5" fill-opacity="0.0117647"/>
</svg>
